<svg width="19" height="19" viewBox="0 0 19 19" fill="none" xmlns="http://www.w3.org/2000/svg">
<path d="M9 5C7.9 5 6.95833 5.39167 6.175 6.175C5.39167 6.95833 5 7.9 5 9C5 9.84 5.23867 10.599 5.716 11.277C6.194 11.955 6.824 12.4433 7.606 12.742C7.73133 12.7987 7.826 12.892 7.89 13.022C7.95267 13.152 7.958 13.28 7.906 13.406C7.85333 13.524 7.771 13.6157 7.659 13.681C7.547 13.7463 7.43233 13.7527 7.315 13.7C6.31633 13.3413 5.51433 12.7343 4.909 11.879C4.30367 11.0237 4.00067 10.064 4 9C4 7.61533 4.48733 6.436 5.462 5.462C6.43667 4.488 7.616 4.00067 9 4C10.0553 4 11.0147 4.303 11.878 4.909C12.7413 5.51433 13.3507 6.314 13.706 7.308C13.7547 7.426 13.744 7.544 13.674 7.662C13.604 7.78 13.51 7.86333 13.392 7.912C13.254 7.964 13.122 7.95733 12.996 7.892C12.8707 7.82667 12.7797 7.725 12.723 7.587C12.4243 6.805 11.936 6.17833 11.258 5.707C10.58 5.23567 9.82733 5 9 5ZM9 1C6.76667 1 4.875 1.775 3.325 3.325C1.775 4.875 1 6.76667 1 9C1 11.228 1.74933 13.1047 3.248 14.63C4.74667 16.1567 6.59533 16.943 8.794 16.989C8.93667 16.9963 9.05767 17.0507 9.157 17.152C9.25633 17.2533 9.304 17.375 9.3 17.517C9.296 17.659 9.24633 17.7803 9.151 17.881C9.05567 17.9817 8.93667 18.0297 8.794 18.025C7.54533 18.0057 6.38733 17.7447 5.32 17.242C4.25333 16.7393 3.32467 16.0757 2.534 15.251C1.74333 14.4263 1.12333 13.4743 0.674 12.395C0.224667 11.3157 0 10.184 0 9C0 7.75733 0.236667 6.58867 0.71 5.494C1.184 4.39933 1.82633 3.447 2.637 2.637C3.447 1.82567 4.39933 1.18333 5.494 0.71C6.58867 0.236667 7.75733 0 9 0C11.3733 0 13.457 0.837333 15.251 2.512C17.045 4.18667 17.9697 6.27433 18.025 8.775C18.033 8.91367 17.989 9.03367 17.893 9.135C17.7977 9.23767 17.679 9.291 17.537 9.295C17.395 9.299 17.269 9.249 17.159 9.145C17.049 9.041 16.9903 8.91767 16.983 8.775C16.925 6.67233 16.1183 4.85067 14.563 3.31C13.007 1.77 11.1527 1 9 1ZM16.242 17.27L11.962 12.975L11.442 14.558C11.372 14.7527 11.2393 14.8493 11.044 14.848C10.8493 14.8453 10.7233 14.7467 10.666 14.552L9.217 9.727C9.17633 9.56967 9.21167 9.435 9.323 9.323C9.435 9.21167 9.56967 9.17633 9.727 9.217L14.552 10.666C14.7467 10.7233 14.845 10.8493 14.847 11.044C14.849 11.2387 14.7523 11.3713 14.557 11.442L12.975 11.962L17.275 16.242C17.4177 16.3847 17.489 16.556 17.489 16.756C17.489 16.956 17.4177 17.127 17.275 17.269C17.1323 17.411 16.9603 17.4823 16.759 17.483C16.5577 17.4837 16.3853 17.4123 16.242 17.269" fill="#FF5544"/>
</svg>
