<svg width="19" height="16" viewBox="0 0 19 16" fill="none" xmlns="http://www.w3.org/2000/svg">
<path d="M16.8707 9.37262C16.8707 11.444 16.0319 13.3185 14.6747 14.6747L16 16C16.8716 15.1306 17.5628 14.0976 18.0339 12.9602C18.505 11.8229 18.7468 10.6037 18.7452 9.37262C18.7452 4.19612 14.5491 0 9.37263 0C4.19613 0 7.10535e-06 4.19612 7.10535e-06 9.37262C-0.00151095 10.6037 0.240233 11.8229 0.711349 12.9602C1.18247 14.0976 1.87367 15.1306 2.74525 16L4.07054 14.6747C3.19866 13.8028 2.55527 12.7293 2.19736 11.5493C1.83944 10.3694 1.77805 9.11937 2.01862 7.91001C2.25919 6.70066 2.79429 5.5693 3.57653 4.61614C4.35877 3.66298 5.36401 2.91744 6.50319 2.44557C7.64238 1.9737 8.88036 1.79005 10.1075 1.91089C11.3346 2.03174 12.513 2.45334 13.5382 3.13837C14.5635 3.82339 15.404 4.75069 15.9853 5.83813C16.5665 6.92556 16.8707 8.13957 16.8707 9.37262ZM12.459 4.96093L8.24135 9.17861L9.56664 10.5039L13.7843 6.28622L12.459 4.96093Z" fill="#3178EC"/>
</svg>
