<svg width="14" height="14" viewBox="0 0 14 14" fill="none" xmlns="http://www.w3.org/2000/svg">
<path d="M12.75 0.75H8.25M12.75 0.75V5.25M12.75 0.75L7.25 6.25M5.01667 0.75C3.52333 0.75 2.77667 0.75 2.206 1.04067C1.70426 1.29633 1.29633 1.70426 1.04067 2.206C0.75 2.77667 0.75 3.52333 0.75 5.01667V8.48333C0.75 9.97667 0.75 10.7233 1.04067 11.294C1.29633 11.7957 1.70426 12.2037 2.206 12.4593C2.77667 12.75 3.52333 12.75 5.01667 12.75H8.48333C9.97667 12.75 10.7233 12.75 11.294 12.4593C11.7957 12.2037 12.2037 11.7957 12.4593 11.294C12.75 10.7233 12.75 9.97667 12.75 8.48333V7.75" stroke="#3178EC" stroke-width="1.5" stroke-linecap="round" stroke-linejoin="round"/>
</svg>
