<svg width="21" height="16" viewBox="0 0 21 16" fill="none" xmlns="http://www.w3.org/2000/svg">
<path d="M15.0938 12C14.9197 12 14.7528 12.0702 14.6297 12.1953C14.5066 12.3203 14.4375 12.4899 14.4375 12.6667C14.4375 12.8435 14.5066 13.013 14.6297 13.1381C14.7528 13.2631 14.9197 13.3333 15.0938 13.3333H17.7188C17.8928 13.3333 18.0597 13.2631 18.1828 13.1381C18.3059 13.013 18.375 12.8435 18.375 12.6667C18.375 12.4899 18.3059 12.3203 18.1828 12.1953C18.0597 12.0702 17.8928 12 17.7188 12H15.0938ZM0 3.66667C0 2.69421 0.380272 1.76157 1.05716 1.07394C1.73405 0.386308 2.65211 0 3.60938 0H17.3906C18.3479 0 19.2659 0.386308 19.9428 1.07394C20.6197 1.76157 21 2.69421 21 3.66667V12.3333C21 13.3058 20.6197 14.2384 19.9428 14.9261C19.2659 15.6137 18.3479 16 17.3906 16H3.60938C2.65211 16 1.73405 15.6137 1.05716 14.9261C0.380272 14.2384 0 13.3058 0 12.3333V3.66667ZM3.60938 1.33333C3.00021 1.33333 2.41599 1.57917 1.98524 2.01675C1.55449 2.45434 1.3125 3.04783 1.3125 3.66667V5.33333H19.6875V3.66667C19.6875 3.04783 19.4455 2.45434 19.0148 2.01675C18.584 1.57917 17.9998 1.33333 17.3906 1.33333H3.60938ZM19.6875 6.66667H1.3125V12.3333C1.3125 13.6213 2.3415 14.6667 3.60938 14.6667H17.3906C17.9998 14.6667 18.584 14.4208 19.0148 13.9832C19.4455 13.5457 19.6875 12.9522 19.6875 12.3333V6.66667Z" fill="#00A63E"/>
</svg>
