<svg width="24" height="24" viewBox="0 0 24 24" fill="none" xmlns="http://www.w3.org/2000/svg">
<g clip-path="url(#clip0_4339_106352)">
<path d="M23.0902 16.9651C23.1811 17.056 23.2606 17.1659 23.3288 17.2947C23.397 17.4234 23.4538 17.5598 23.4992 17.7037C23.5447 17.8477 23.5788 17.9916 23.6015 18.1355C23.6242 18.2795 23.6356 18.4158 23.6356 18.5446C23.6356 18.7491 23.5977 18.9385 23.5219 19.1127C23.4462 19.287 23.3439 19.4385 23.2151 19.5673C23.0864 19.696 22.9311 19.8021 22.7493 19.8854C22.5675 19.9688 22.3781 20.0066 22.1811 19.9991H1.81869C1.61415 19.9991 1.42477 19.9612 1.25054 19.8854C1.07631 19.8097 0.924801 19.7074 0.796021 19.5786C0.667241 19.4498 0.561186 19.2945 0.477858 19.1127C0.394529 18.9309 0.356653 18.7416 0.364228 18.5446C0.364228 18.4234 0.375591 18.2908 0.398317 18.1469C0.421043 18.003 0.455132 17.8552 0.500584 17.7037C0.546036 17.5522 0.60285 17.4159 0.671028 17.2947C0.739206 17.1735 0.818747 17.0636 0.90965 16.9651L3.27315 14.6016V4H20.7267V14.6016L23.0902 16.9651ZM4.72761 14.1812H19.2722V5.45446H4.72761V14.1812ZM22.1811 18.5446C22.1811 18.4613 22.166 18.3552 22.1357 18.2264C22.1054 18.0976 22.0599 17.9992 21.9993 17.931L19.6926 15.6357H4.30718L2.00049 17.931C1.93989 17.9916 1.89444 18.0863 1.86414 18.2151C1.83384 18.3438 1.81869 18.4537 1.81869 18.5446H22.1811Z" fill="#00A63E"/>
</g>
<defs>
<clipPath id="clip0_4339_106352">
<rect width="24" height="24" fill="white"/>
</clipPath>
</defs>
</svg>
