<svg width="20" height="20" viewBox="0 0 20 20" fill="none" xmlns="http://www.w3.org/2000/svg">
<path d="M10 0.25C10.1989 0.25 10.3897 0.329018 10.5303 0.46967C10.671 0.610322 10.75 0.801088 10.75 1V2.25H15C15.1989 2.25 15.3897 2.32902 15.5303 2.46967C15.671 2.61032 15.75 2.80109 15.75 3C15.75 3.19891 15.671 3.38968 15.5303 3.53033C15.3897 3.67098 15.1989 3.75 15 3.75H10.75V9.25H12.5C13.6272 9.25 14.7082 9.69777 15.5052 10.4948C16.3022 11.2918 16.75 12.3728 16.75 13.5C16.75 14.6272 16.3022 15.7082 15.5052 16.5052C14.7082 17.3022 13.6272 17.75 12.5 17.75H10.75V19C10.75 19.1989 10.671 19.3897 10.5303 19.5303C10.3897 19.671 10.1989 19.75 10 19.75C9.80109 19.75 9.61032 19.671 9.46967 19.5303C9.32902 19.3897 9.25 19.1989 9.25 19V17.75H4C3.80109 17.75 3.61032 17.671 3.46967 17.5303C3.32902 17.3897 3.25 17.1989 3.25 17C3.25 16.8011 3.32902 16.6103 3.46967 16.4697C3.61032 16.329 3.80109 16.25 4 16.25H9.25V10.75H7.5C6.37283 10.75 5.29183 10.3022 4.4948 9.5052C3.69777 8.70817 3.25 7.62717 3.25 6.5C3.25 5.37283 3.69777 4.29183 4.4948 3.4948C5.29183 2.69777 6.37283 2.25 7.5 2.25H9.25V1C9.25 0.801088 9.32902 0.610322 9.46967 0.46967C9.61032 0.329018 9.80109 0.25 10 0.25ZM9.25 3.75H7.5C6.77065 3.75 6.07118 4.03973 5.55546 4.55546C5.03973 5.07118 4.75 5.77065 4.75 6.5C4.75 7.22935 5.03973 7.92882 5.55546 8.44454C6.07118 8.96027 6.77065 9.25 7.5 9.25H9.25V3.75ZM10.75 10.75V16.25H12.5C13.2293 16.25 13.9288 15.9603 14.4445 15.4445C14.9603 14.9288 15.25 14.2293 15.25 13.5C15.25 12.7707 14.9603 12.0712 14.4445 11.5555C13.9288 11.0397 13.2293 10.75 12.5 10.75H10.75Z" fill="#00A63E"/>
</svg>
