<svg width="23" height="12" viewBox="0 0 23 12" fill="none" xmlns="http://www.w3.org/2000/svg">
<path d="M20.7959 1.36129e-07C20.4533 0.000108079 20.1156 0.0783116 19.8094 0.228401C19.5032 0.378491 19.237 0.596334 19.0319 0.864635C18.8268 1.13294 18.6885 1.4443 18.6279 1.77402C18.5674 2.10374 18.5862 2.44272 18.683 2.76406L15.2645 6.10717C14.8136 5.96028 14.3262 5.96028 13.8754 6.10717L11.341 3.62841C11.4244 3.31013 11.4323 2.97741 11.3641 2.6557C11.2958 2.33398 11.1533 2.03178 10.9473 1.77221C10.7414 1.51263 10.4775 1.30256 10.1758 1.15804C9.87408 1.01353 9.54259 0.938396 9.20666 0.938396C8.87072 0.938396 8.53923 1.01353 8.23753 1.15804C7.93584 1.30256 7.67192 1.51263 7.46596 1.77221C7.26001 2.03178 7.11746 2.33398 7.04923 2.6557C6.98099 2.97741 6.98887 3.31013 7.07227 3.62841L2.83367 7.77122C2.3631 7.63499 1.85952 7.65602 1.40253 7.83101C0.945545 8.006 0.561221 8.32496 0.310304 8.73748C0.0593879 9.14999 -0.0438082 9.63253 0.0170273 10.1088C0.0778629 10.5851 0.29926 11.028 0.646224 11.3675C0.993189 11.7069 1.44593 11.9236 1.93288 11.9833C2.41984 12.0429 2.91324 11.9421 3.33508 11.6969C3.75693 11.4516 4.08317 11.0758 4.26223 10.6289C4.44129 10.182 4.46296 9.68945 4.32382 9.22915L8.50876 5.13647C8.95959 5.28346 9.44701 5.28346 9.89784 5.13647L12.4327 7.61569C12.3493 7.93397 12.3414 8.26669 12.4096 8.58841C12.4779 8.91012 12.6204 9.21232 12.8264 9.4719C13.0323 9.73147 13.2962 9.94154 13.5979 10.0861C13.8996 10.2306 14.2311 10.3057 14.567 10.3057C14.903 10.3057 15.2345 10.2306 15.5362 10.0861C15.8379 9.94154 16.1018 9.73147 16.3077 9.4719C16.5137 9.21232 16.6562 8.91012 16.7245 8.58841C16.7927 8.26669 16.7848 7.93397 16.7014 7.61569L20.1732 4.22198C20.4763 4.30944 20.795 4.33211 21.1079 4.28845C21.4207 4.2448 21.7203 4.13584 21.9862 3.96897C22.2522 3.80211 22.4784 3.58123 22.6494 3.32134C22.8204 3.06145 22.9323 2.76861 22.9774 2.46271C23.0225 2.15681 22.9999 1.845 22.9109 1.54842C22.822 1.25185 22.6688 0.977463 22.4619 0.743874C22.255 0.510285 21.9991 0.322961 21.7116 0.194611C21.4242 0.0662618 21.1119 -0.000109711 20.7959 1.36129e-07Z" fill="#00A63E"/>
</svg>
