<svg width="24" height="24" viewBox="0 0 24 24" fill="none" xmlns="http://www.w3.org/2000/svg">
<path d="M9.00052 10.4983C9.00052 10.2994 9.07954 10.1086 9.22019 9.96793C9.36084 9.82728 9.55161 9.74826 9.75052 9.74826H14.2505C14.4494 9.74826 14.6402 9.82728 14.7808 9.96793C14.9215 10.1086 15.0005 10.2994 15.0005 10.4983C15.0005 10.6972 14.9215 10.8879 14.7808 11.0286C14.6402 11.1692 14.4494 11.2483 14.2505 11.2483H9.75052C9.55161 11.2483 9.36084 11.1692 9.22019 11.0286C9.07954 10.8879 9.00052 10.6972 9.00052 10.4983ZM9.75052 12.7483C9.55161 12.7483 9.36084 12.8273 9.22019 12.9679C9.07954 13.1086 9.00052 13.2994 9.00052 13.4983C9.00052 13.6972 9.07954 13.8879 9.22019 14.0286C9.36084 14.1692 9.55161 14.2483 9.75052 14.2483H12.7505C12.9494 14.2483 13.1402 14.1692 13.2808 14.0286C13.4215 13.8879 13.5005 13.6972 13.5005 13.4983C13.5005 13.2994 13.4215 13.1086 13.2808 12.9679C13.1402 12.8273 12.9494 12.7483 12.7505 12.7483H9.75052ZM3.00052 11.9983C3.0009 10.0168 3.65516 8.09091 4.86179 6.51926C6.06843 4.9476 7.75999 3.81807 9.67408 3.30589C11.5882 2.7937 13.6178 2.92749 15.4481 3.6865C17.2784 4.44551 18.807 5.78731 19.7969 7.50376C20.7868 9.2202 21.1826 11.2153 20.9229 13.1797C20.6632 15.144 19.7625 16.9677 18.3605 18.3679C16.9585 19.7682 15.1337 20.6666 13.169 20.9238C11.2044 21.1811 9.20972 20.7828 7.49452 19.7908L3.98752 20.9608C3.85795 21.004 3.71903 21.0111 3.58575 20.9812C3.45247 20.9512 3.32989 20.8855 3.23124 20.791C3.13259 20.6965 3.06161 20.5769 3.02597 20.445C2.99034 20.3132 2.99139 20.1741 3.02902 20.0428L4.09702 16.3063C3.37705 14.9845 3.00005 13.5034 3.00052 11.9983ZM12.0005 4.49826C10.6763 4.49818 9.37565 4.84871 8.2308 5.51422C7.08595 6.17974 6.13772 7.1365 5.48249 8.28726C4.82727 9.43803 4.4884 10.7418 4.50035 12.0659C4.5123 13.3901 4.87463 14.6875 5.55052 15.8263C5.60252 15.9142 5.636 16.0119 5.64889 16.1133C5.66179 16.2146 5.65384 16.3176 5.62552 16.4158L4.86202 19.0858L7.34902 18.2578C7.45464 18.2225 7.56678 18.2112 7.67731 18.2247C7.78784 18.2382 7.89398 18.2761 7.98802 18.3358C8.97092 18.9578 10.085 19.3427 11.2423 19.46C12.3996 19.5773 13.5683 19.4239 14.656 19.0118C15.7438 18.5996 16.7207 17.9401 17.5097 17.0854C18.2987 16.2307 18.8781 15.2042 19.202 14.087C19.526 12.9698 19.5856 11.7926 19.3763 10.6484C19.1669 9.50421 18.6943 8.42438 17.9958 7.49428C17.2972 6.56418 16.3919 5.80931 15.3514 5.28934C14.3109 4.76936 13.1637 4.49854 12.0005 4.49826Z" fill="#726D6D" stroke="#726D6D" stroke-width="0.5"/>
</svg>
