<svg width="20" height="20" viewBox="0 0 20 20" fill="none" xmlns="http://www.w3.org/2000/svg">
<path d="M10 13.5555H10.0071M10 6.44443V10.8889M2.20449 6.3671L6.36447 2.20444C6.49781 2.07111 6.67558 2 6.87114 2H13.1378C13.3245 2 13.5111 2.07111 13.6445 2.20444L17.7956 6.35821C17.9289 6.49154 18 6.66932 18 6.86488V13.1351C18 13.3217 17.9289 13.5084 17.7956 13.6417L13.6445 17.7955C13.5111 17.9288 13.3333 18 13.1378 18H6.86225C6.76849 18.001 6.67545 17.9834 6.5885 17.9483C6.50155 17.9133 6.42239 17.8613 6.35559 17.7955L2.20449 13.6417C2.13869 13.5749 2.08675 13.4958 2.05166 13.4088C2.01657 13.3219 1.99903 13.2288 2.00004 13.1351V6.86488C2.00004 6.67821 2.07115 6.49154 2.20449 6.35821V6.3671Z" stroke="#8E63CF" stroke-width="1.5" stroke-miterlimit="10" stroke-linecap="round" stroke-linejoin="round"/>
</svg>
