<svg width="18" height="18" viewBox="0 0 18 18" fill="none" xmlns="http://www.w3.org/2000/svg">
<path d="M13.6703 7.72913C13.7722 7.60072 13.8198 7.43756 13.803 7.2745C13.7862 7.11144 13.7063 6.96141 13.5804 6.85647C13.4545 6.75153 13.2925 6.7 13.1291 6.71288C12.9657 6.72576 12.8138 6.80204 12.7058 6.92541L11.2014 8.73043C10.8916 9.10299 10.6999 9.32987 10.5433 9.47136C10.5024 9.51108 10.4565 9.54541 10.4069 9.5735L10.3976 9.57769L10.3884 9.5735C10.3385 9.54547 10.2923 9.51114 10.2511 9.47136C10.0946 9.32904 9.90369 9.10299 9.59308 8.73043L9.34862 8.43741C9.07401 8.10671 8.82536 7.8095 8.59429 7.6002C8.34229 7.37248 8.02499 7.16987 7.60638 7.16987C7.18778 7.16987 6.87132 7.37248 6.61848 7.6002C6.38741 7.8095 6.13959 8.10671 5.86499 8.43741L4.3329 10.2742C4.28012 10.3376 4.24035 10.4108 4.21585 10.4895C4.19135 10.5683 4.1826 10.6511 4.1901 10.7332C4.20525 10.8991 4.28568 11.0522 4.41369 11.1588C4.54169 11.2653 4.7068 11.3167 4.87268 11.3016C5.03855 11.2864 5.19162 11.206 5.2982 11.078L6.80266 9.27294C7.11243 8.90039 7.30415 8.6735 7.46071 8.53201C7.50166 8.49229 7.54752 8.45797 7.59718 8.42987L7.60638 8.42569L7.61559 8.42987C7.66554 8.45791 7.71168 8.49224 7.7529 8.53201C7.90945 8.67434 8.10034 8.90039 8.41094 9.27294L8.65541 9.56597C8.93085 9.89666 9.17866 10.1939 9.40973 10.4032C9.66173 10.6309 9.97904 10.8335 10.3976 10.8335C10.8162 10.8335 11.1327 10.6309 11.3855 10.4032C11.6166 10.1939 11.8644 9.89666 12.139 9.56597L13.6703 7.72913Z" fill="black"/>
<path fill-rule="evenodd" clip-rule="evenodd" d="M8.95228 0C7.01916 0 5.50465 4.99016e-08 4.32251 0.15907C3.11358 0.321488 2.15916 0.661395 1.40986 1.40986C0.660558 2.15916 0.321488 3.11358 0.15907 4.32335C4.99016e-08 5.50465 0 7.01916 0 8.95228V9.04772C0 10.9808 4.99016e-08 12.4953 0.15907 13.6775C0.321488 14.8864 0.661395 15.8408 1.40986 16.5901C2.15916 17.3394 3.11358 17.6785 4.32335 17.8409C5.50465 18 7.01916 18 8.95228 18H9.04772C10.9808 18 12.4953 18 13.6775 17.8409C14.8864 17.6785 15.8408 17.3386 16.5901 16.5901C17.3394 15.8408 17.6785 14.8864 17.8409 13.6767C18 12.4953 18 10.9808 18 9.04772V8.95228C18 7.01916 18 5.50465 17.8409 4.32251C17.6785 3.11358 17.3386 2.15916 16.5901 1.40986C15.8408 0.660558 14.8864 0.321488 13.6767 0.15907C12.4953 4.99016e-08 10.9808 0 9.04772 0H8.95228ZM2.29814 2.29814C2.77535 1.82093 3.42 1.54716 4.49079 1.40316C5.57916 1.25749 7.00912 1.25581 9 1.25581C10.9909 1.25581 12.4208 1.25749 13.5092 1.40316C14.58 1.54716 15.2255 1.82177 15.7027 2.29814C16.1791 2.77535 16.4528 3.42 16.5968 4.49079C16.7425 5.57916 16.7442 7.00912 16.7442 9C16.7442 10.9909 16.7425 12.4208 16.5968 13.5092C16.4528 14.58 16.1782 15.2255 15.7019 15.7027C15.2247 16.1791 14.58 16.4528 13.5092 16.5968C12.4208 16.7425 10.9909 16.7442 9 16.7442C7.00912 16.7442 5.57916 16.7425 4.49079 16.5968C3.42 16.4528 2.77451 16.1782 2.2973 15.7019C1.82093 15.2247 1.54716 14.58 1.40316 13.5092C1.25749 12.4208 1.25581 10.9909 1.25581 9C1.25581 7.00912 1.25749 5.57916 1.40316 4.49079C1.54716 3.42 1.82177 2.77535 2.29814 2.29814Z" fill="black"/>
</svg>
