<svg width="18" height="18" viewBox="0 0 18 18" fill="none" xmlns="http://www.w3.org/2000/svg">
<path d="M4.75121 0.75C3.87045 0.749734 3.01423 1.04017 2.3154 1.57625C1.61657 2.11232 1.11421 2.86406 0.886274 3.71481C0.658336 4.56557 0.717565 5.46777 1.05477 6.28142C1.39197 7.09508 1.9883 7.77469 2.75121 8.2148V13.4244C2.75121 14.0788 2.75121 14.4052 2.87281 14.6996C2.99441 14.9932 3.22641 15.2244 3.68881 15.6876L4.75121 16.75L6.43761 15.0636C6.51521 14.986 6.55441 14.9468 6.58641 14.9044C6.67117 14.7936 6.7255 14.6626 6.74401 14.5244C6.75121 14.4716 6.75121 14.4164 6.75121 14.3068C6.75121 14.218 6.75121 14.1732 6.74641 14.13C6.73395 14.0166 6.6974 13.9073 6.63921 13.8092C6.60776 13.7594 6.57357 13.7113 6.53681 13.6652L5.55121 12.35L6.11121 11.6036C6.42801 11.1804 6.58721 10.9692 6.66881 10.7228C6.75121 10.4764 6.75121 10.2124 6.75121 9.6828V8.2148C7.51413 7.77469 8.11045 7.09508 8.44765 6.28142C8.78486 5.46777 8.84409 4.56557 8.61615 3.71481C8.38821 2.86406 7.88585 2.11232 7.18702 1.57625C6.4882 1.04017 5.63197 0.749734 4.75121 0.75Z" stroke="black" stroke-width="1.5" stroke-linejoin="round"/>
<path d="M4.75 4.75H4.7572" stroke="black" stroke-width="1.5" stroke-linecap="round" stroke-linejoin="round"/>
<path d="M9.55078 10.3484H14.3508C15.0964 10.3484 15.4692 10.3484 15.7628 10.47C15.957 10.5504 16.1335 10.6684 16.2822 10.817C16.4309 10.9657 16.5488 11.1422 16.6292 11.3364C16.7508 11.63 16.7508 12.0028 16.7508 12.7484C16.7508 13.494 16.7508 13.8668 16.6292 14.1604C16.5488 14.3547 16.4309 14.5312 16.2822 14.6799C16.1335 14.8285 15.957 14.9464 15.7628 15.0268C15.4692 15.1484 15.0964 15.1484 14.3508 15.1484H9.55078M11.1508 3.14844H14.3508C15.0964 3.14844 15.4692 3.14844 15.7628 3.27004C15.957 3.35045 16.1335 3.46835 16.2822 3.61702C16.4309 3.76568 16.5488 3.94218 16.6292 4.13644C16.7508 4.43004 16.7508 4.80284 16.7508 5.54844C16.7508 6.29404 16.7508 6.66684 16.6292 6.96044C16.5488 7.15469 16.4309 7.3312 16.2822 7.47986C16.1335 7.62852 15.957 7.74643 15.7628 7.82684C15.4692 7.94844 15.0964 7.94844 14.3508 7.94844H11.1508" stroke="black" stroke-width="1.5" stroke-linecap="round"/>
</svg>
