<svg width="305" height="125" viewBox="0 0 305 125" fill="none" xmlns="http://www.w3.org/2000/svg">
<path d="M304.998 125H304.818C304.931 123.921 304.991 122.828 304.998 121.723V125ZM305 87H304.998V121.277C304.873 102.326 288.85 87.0002 269.099 87C267.868 87 266.652 87.0587 265.453 87.1748V87H30C13.4315 87 0 73.5685 0 57C0 40.4315 13.4315 27 30 27H265.453V26.8252C266.652 26.9413 267.868 27 269.099 27C288.85 26.9998 304.873 11.6739 304.998 -7.27734V27H305V87ZM304.998 -11V-7.72266C304.991 -8.82822 304.931 -9.92143 304.818 -11H304.998Z" fill="#E8F1FF"/>
</svg>
